<?xml version="1.0" standalone="no"?>
<!DOCTYPE svg PUBLIC "-//W3C//DTD SVG 20010904//EN"
 "http://www.w3.org/TR/2001/REC-SVG-20010904/DTD/svg10.dtd">
<svg version="1.0" xmlns="http://www.w3.org/2000/svg"
 width="70.000000pt" height="70.000000pt" viewBox="0 0 70.000000 70.000000"
 preserveAspectRatio="xMidYMid meet">
<metadata>
Created by potrace 1.11, written by Peter Selinger 2001-2013
</metadata>
<g transform="translate(0.000000,70.000000) scale(0.100000,-0.100000)"
fill="#000000" stroke="none">
<path d="M0 350 l0 -350 350 0 350 0 0 350 0 350 -350 0 -350 0 0 -350z m489
264 c59 -31 100 -74 133 -137 18 -34 23 -58 23 -127 0 -76 -3 -91 -29 -138
-33 -60 -76 -101 -139 -134 -58 -31 -182 -32 -248 -2 -244 112 -222 477 33
560 67 22 164 13 227 -22z"/>
<path d="M227 516 c53 -24 67 -56 59 -135 -5 -50 -3 -79 7 -103 24 -56 66 -78
95 -50 21 20 39 14 77 -24 23 -23 43 -34 57 -32 36 5 31 23 -17 57 -25 18 -45
38 -45 44 0 7 -16 36 -35 66 -19 29 -35 57 -35 61 0 29 -27 61 -64 75 -22 9
-48 23 -56 30 -8 7 -28 16 -45 20 l-30 6 32 -15z"/>
<path d="M325 189 c-4 -6 -5 -12 -2 -15 2 -3 7 2 10 11 7 17 1 20 -8 4z"/>
<path d="M361 184 c0 -11 3 -14 6 -6 3 7 2 16 -1 19 -3 4 -6 -2 -5 -13z"/>
</g>
</svg>
